<svg xmlns="http://www.w3.org/2000/svg" width="375" viewBox="0 0 375 375" height="375" version="1.0"><path fill="#0040FF" d="M 187.5 0 C 83.945312 0 0 83.945312 0 187.5 C 0 291.054688 83.945312 375 187.5 375 C 291.054688 375 375 291.054688 375 187.5 C 375 83.945312 291.054688 0 187.5 0"/><g fill="#FFF"><g><g><path d="M 17.070312 -215.792969 L 17.070312 0 L 65.703125 0 L 65.703125 -58.617188 L 91.46875 -58.617188 C 138.492188 -58.617188 162.648438 -98.554688 162.648438 -137.203125 C 162.648438 -175.855469 138.492188 -215.792969 91.46875 -215.792969 Z M 65.703125 -167.800781 L 87.605469 -167.800781 C 106.929688 -167.800781 113.691406 -152.664062 113.691406 -137.203125 C 113.691406 -121.746094 106.929688 -106.605469 87.605469 -106.605469 L 65.703125 -106.605469 Z M 65.703125 -167.800781" transform="translate(25.495 301.096)"/></g></g></g><g fill="#FFF"><g><g><path d="M 17.070312 -215.792969 L 17.070312 0 L 87.925781 0 C 136.882812 0 159.75 -31.5625 159.75 -76.976562 L 159.75 -138.816406 C 159.75 -184.226562 136.882812 -215.792969 87.925781 -215.792969 Z M 111.117188 -76.976562 C 111.117188 -56.042969 103.707031 -47.988281 87.925781 -47.988281 L 65.703125 -47.988281 L 65.703125 -167.800781 L 87.925781 -167.800781 C 103.707031 -167.800781 111.117188 -159.75 111.117188 -138.816406 Z M 111.117188 -76.976562" transform="translate(194.251 301.096)"/></g></g></g></svg>